<?xml version="1.0" encoding="utf-8"?>
<!-- Generator: Adobe Illustrator 26.5.0, SVG Export Plug-In . SVG Version: 6.00 Build 0)  -->
<svg version="1.1" id="Camada_1" xmlns="http://www.w3.org/2000/svg" xmlns:xlink="http://www.w3.org/1999/xlink" x="0px" y="0px"
	 viewBox="0 0 505 332" style="enable-background:new 0 0 505 332;" xml:space="preserve">
<style type="text/css">
	.st0{fill:#006EAB;}
	.st1{fill:#FFFFFF;}
</style>
<g>
	<path class="st0" d="M426.9,68c0-4.8-1.9-9.4-5.7-12.8c-4.5-3.9-11-4.1-17.3-4.1c-22.4,0-41.1,9.3-53.6,24.1
		c-11.7-14-30-24.1-52.1-24.1h-40.1c-20.5,0-37.6,8.1-50.2,21.5C196.1,59.4,178.4,51,158.4,51h-42.5C73.8,51,47,85.8,47,116.5v140.1
		c0,4.8,1.9,9.4,5.7,12.8c5.1,4.1,11.2,4.1,17.3,4.1c41.1,0,70-31.3,70-70.9h47.1c0,39.2,28.4,70.9,71,70.9H356
		c45.7,0,70.9-34.8,70.9-65.2V68z"/>
	<path class="st1" d="M358.3,119.7v129.6c24.5-0.4,44.4-19.9,44.4-44.4V75.3C378.1,75.7,358.3,95.2,358.3,119.7"/>
	<path class="st1" d="M201.8,118.8c-0.4-24-19.5-43.5-43.5-43.5h-42.6c0,0,0,0-0.1,0v0c-24.5,0.4-44.4,19.9-44.4,44.4v129.6
		c24.5-0.4,44.4-19.9,44.4-44.4V178h73c-0.4-24-19.5-43.5-43.5-43.5h-29.5v-15.7H201.8z"/>
	<path class="st1" d="M300,204.8h-43.7v-27.9h68.8c-0.4-24-19.5-43.5-43.5-43.5h-25.3v-14.6h86.1c-0.4-24-19.5-43.5-43.5-43.5h-42.6
		v0c-24.5,0.4-44.4,19.9-44.4,44.4v85.2c0.4,24.5,20.6,44.4,44.4,44.4h88.1C344,224.7,324.5,204.8,300,204.8"/>
</g>
</svg>
